<svg width="370" height="28" viewBox="0 0 370 28" fill="none" xmlns="http://www.w3.org/2000/svg">
<rect x="0.5" y="4.5" width="19" height="19" rx="3.5" fill="#1C1F21"/>
<rect x="0.5" y="4.5" width="19" height="19" rx="3.5" stroke="#363B40"/>
<path d="M39.6357 19.5L38.4053 16.3281H34.3994L33.1758 19.5H32L35.9102 9.46484H36.9561L40.8389 19.5H39.6357ZM38.0566 15.2959L36.8877 12.1445C36.8604 12.0625 36.8148 11.9281 36.751 11.7412C36.6917 11.5544 36.6302 11.3607 36.5664 11.1602C36.5026 10.9596 36.4502 10.7979 36.4092 10.6748C36.3636 10.8617 36.3135 11.0485 36.2588 11.2354C36.2087 11.4176 36.1585 11.5885 36.1084 11.748C36.0583 11.903 36.015 12.0352 35.9785 12.1445L34.7891 15.2959H38.0566ZM45.0566 19.6367C44.3822 19.6367 43.7874 19.4977 43.2725 19.2197C42.7575 18.9417 42.3564 18.5179 42.0693 17.9482C41.7822 17.3786 41.6387 16.6608 41.6387 15.7949C41.6387 14.888 41.7891 14.1475 42.0898 13.5732C42.3952 12.9945 42.8145 12.5661 43.3477 12.2881C43.8809 12.0101 44.487 11.8711 45.166 11.8711C45.5397 11.8711 45.8997 11.9098 46.2461 11.9873C46.597 12.0602 46.8841 12.1536 47.1074 12.2676L46.7656 13.2178C46.5378 13.1266 46.2734 13.0446 45.9727 12.9717C45.6764 12.8988 45.3984 12.8623 45.1387 12.8623C44.6191 12.8623 44.1862 12.974 43.8398 13.1973C43.498 13.4206 43.2406 13.7487 43.0674 14.1816C42.8988 14.6146 42.8145 15.1478 42.8145 15.7812C42.8145 16.3874 42.8965 16.9046 43.0605 17.333C43.2292 17.7614 43.4775 18.0895 43.8057 18.3174C44.1383 18.5407 44.5531 18.6523 45.0498 18.6523C45.4463 18.6523 45.804 18.6113 46.123 18.5293C46.4421 18.4427 46.7314 18.3424 46.9912 18.2285V19.2402C46.7406 19.3678 46.4603 19.4658 46.1504 19.5342C45.8451 19.6025 45.4805 19.6367 45.0566 19.6367ZM51.6533 11.8711C52.2913 11.8711 52.8382 12.0124 53.2939 12.2949C53.7497 12.5775 54.0983 12.974 54.3398 13.4844C54.5814 13.9902 54.7021 14.5827 54.7021 15.2617V15.9658H49.5273C49.541 16.8454 49.7598 17.5153 50.1836 17.9756C50.6074 18.4359 51.2044 18.666 51.9746 18.666C52.4486 18.666 52.8678 18.6227 53.2324 18.5361C53.597 18.4495 53.9753 18.3219 54.3672 18.1533V19.1514C53.9889 19.32 53.613 19.443 53.2393 19.5205C52.8701 19.598 52.4326 19.6367 51.9268 19.6367C51.2067 19.6367 50.5778 19.4909 50.04 19.1992C49.5068 18.903 49.0921 18.4701 48.7959 17.9004C48.4997 17.3307 48.3516 16.6335 48.3516 15.8086C48.3516 15.002 48.486 14.3047 48.7549 13.7168C49.0283 13.1243 49.4111 12.6686 49.9033 12.3496C50.4001 12.0306 50.9834 11.8711 51.6533 11.8711ZM51.6396 12.8008C51.0335 12.8008 50.5505 12.999 50.1904 13.3955C49.8304 13.792 49.6162 14.3457 49.5479 15.0566H53.5127C53.5081 14.61 53.4375 14.2181 53.3008 13.8809C53.1686 13.5391 52.9658 13.2747 52.6924 13.0879C52.4189 12.8965 52.068 12.8008 51.6396 12.8008ZM57.7646 12.0078V19.5H56.6299V12.0078H57.7646ZM57.2109 9.20508C57.3978 9.20508 57.5573 9.2666 57.6895 9.38965C57.8262 9.50814 57.8945 9.69499 57.8945 9.9502C57.8945 10.2008 57.8262 10.3877 57.6895 10.5107C57.5573 10.6338 57.3978 10.6953 57.2109 10.6953C57.015 10.6953 56.8509 10.6338 56.7188 10.5107C56.5911 10.3877 56.5273 10.2008 56.5273 9.9502C56.5273 9.69499 56.5911 9.50814 56.7188 9.38965C56.8509 9.2666 57.015 9.20508 57.2109 9.20508ZM62.5908 18.707C62.7777 18.707 62.9691 18.6911 63.165 18.6592C63.361 18.6273 63.5205 18.5885 63.6436 18.543V19.4248C63.5114 19.484 63.3268 19.5342 63.0898 19.5752C62.8574 19.6162 62.6296 19.6367 62.4062 19.6367C62.0098 19.6367 61.6497 19.5684 61.3262 19.4316C61.0026 19.2904 60.7428 19.0534 60.5469 18.7207C60.3555 18.388 60.2598 17.9277 60.2598 17.3398V12.8965H59.1934V12.3428L60.2666 11.8984L60.7178 10.2715H61.4014V12.0078H63.5957V12.8965H61.4014V17.3057C61.4014 17.7751 61.5085 18.126 61.7227 18.3584C61.9414 18.5908 62.2308 18.707 62.5908 18.707ZM71.6211 15.7402C71.6211 16.3555 71.5413 16.9046 71.3818 17.3877C71.2223 17.8708 70.9922 18.2786 70.6914 18.6113C70.3906 18.944 70.026 19.1992 69.5977 19.377C69.1738 19.5501 68.693 19.6367 68.1553 19.6367C67.654 19.6367 67.1937 19.5501 66.7744 19.377C66.3597 19.1992 65.9997 18.944 65.6943 18.6113C65.3936 18.2786 65.1589 17.8708 64.9902 17.3877C64.8262 16.9046 64.7441 16.3555 64.7441 15.7402C64.7441 14.9199 64.8831 14.2227 65.1611 13.6484C65.4391 13.0697 65.8356 12.6299 66.3506 12.3291C66.8701 12.0238 67.4876 11.8711 68.2031 11.8711C68.8867 11.8711 69.4837 12.0238 69.9941 12.3291C70.5091 12.6344 70.9079 13.0765 71.1904 13.6553C71.4775 14.2295 71.6211 14.9245 71.6211 15.7402ZM65.9199 15.7402C65.9199 16.3418 65.9997 16.8636 66.1592 17.3057C66.3187 17.7477 66.5648 18.0895 66.8975 18.3311C67.2301 18.5726 67.6585 18.6934 68.1826 18.6934C68.7021 18.6934 69.1283 18.5726 69.4609 18.3311C69.7982 18.0895 70.0465 17.7477 70.2061 17.3057C70.3656 16.8636 70.4453 16.3418 70.4453 15.7402C70.4453 15.1432 70.3656 14.6283 70.2061 14.1953C70.0465 13.7578 69.8005 13.4206 69.4678 13.1836C69.1351 12.9466 68.7044 12.8281 68.1758 12.8281C67.3965 12.8281 66.8245 13.0856 66.46 13.6006C66.0999 14.1156 65.9199 14.8288 65.9199 15.7402ZM80.624 11.8711C80.7744 11.8711 80.9316 11.8802 81.0957 11.8984C81.2598 11.9121 81.4056 11.9326 81.5332 11.96L81.3896 13.0127C81.2666 12.9808 81.1299 12.9557 80.9795 12.9375C80.8291 12.9193 80.6878 12.9102 80.5557 12.9102C80.2549 12.9102 79.9701 12.9717 79.7012 13.0947C79.4368 13.2132 79.2044 13.3864 79.0039 13.6143C78.8034 13.8376 78.6462 14.1087 78.5322 14.4277C78.4183 14.7422 78.3613 15.0931 78.3613 15.4805V19.5H77.2197V12.0078H78.1631L78.2861 13.3887H78.334C78.4889 13.1107 78.6758 12.8577 78.8945 12.6299C79.1133 12.3975 79.3662 12.2129 79.6533 12.0762C79.945 11.9395 80.2686 11.8711 80.624 11.8711ZM85.833 11.8711C86.471 11.8711 87.0179 12.0124 87.4736 12.2949C87.9294 12.5775 88.278 12.974 88.5195 13.4844C88.7611 13.9902 88.8818 14.5827 88.8818 15.2617V15.9658H83.707C83.7207 16.8454 83.9395 17.5153 84.3633 17.9756C84.7871 18.4359 85.3841 18.666 86.1543 18.666C86.6283 18.666 87.0475 18.6227 87.4121 18.5361C87.7767 18.4495 88.1549 18.3219 88.5469 18.1533V19.1514C88.1686 19.32 87.7926 19.443 87.4189 19.5205C87.0498 19.598 86.6123 19.6367 86.1064 19.6367C85.3864 19.6367 84.7575 19.4909 84.2197 19.1992C83.6865 18.903 83.2718 18.4701 82.9756 17.9004C82.6794 17.3307 82.5312 16.6335 82.5312 15.8086C82.5312 15.002 82.6657 14.3047 82.9346 13.7168C83.208 13.1243 83.5908 12.6686 84.083 12.3496C84.5798 12.0306 85.1631 11.8711 85.833 11.8711ZM85.8193 12.8008C85.2132 12.8008 84.7301 12.999 84.3701 13.3955C84.0101 13.792 83.7959 14.3457 83.7275 15.0566H87.6924C87.6878 14.61 87.6172 14.2181 87.4805 13.8809C87.3483 13.5391 87.1455 13.2747 86.8721 13.0879C86.5986 12.8965 86.2477 12.8008 85.8193 12.8008ZM93.8105 19.6367C93.1361 19.6367 92.5413 19.4977 92.0264 19.2197C91.5114 18.9417 91.1104 18.5179 90.8232 17.9482C90.5361 17.3786 90.3926 16.6608 90.3926 15.7949C90.3926 14.888 90.543 14.1475 90.8438 13.5732C91.1491 12.9945 91.5684 12.5661 92.1016 12.2881C92.6348 12.0101 93.2409 11.8711 93.9199 11.8711C94.2936 11.8711 94.6536 11.9098 95 11.9873C95.3509 12.0602 95.638 12.1536 95.8613 12.2676L95.5195 13.2178C95.2917 13.1266 95.0273 13.0446 94.7266 12.9717C94.4303 12.8988 94.1523 12.8623 93.8926 12.8623C93.373 12.8623 92.9401 12.974 92.5938 13.1973C92.252 13.4206 91.9945 13.7487 91.8213 14.1816C91.6527 14.6146 91.5684 15.1478 91.5684 15.7812C91.5684 16.3874 91.6504 16.9046 91.8145 17.333C91.9831 17.7614 92.2314 18.0895 92.5596 18.3174C92.8923 18.5407 93.307 18.6523 93.8037 18.6523C94.2002 18.6523 94.5579 18.6113 94.877 18.5293C95.196 18.4427 95.4854 18.3424 95.7451 18.2285V19.2402C95.4945 19.3678 95.2142 19.4658 94.9043 19.5342C94.599 19.6025 94.2344 19.6367 93.8105 19.6367ZM100.407 11.8711C101.045 11.8711 101.592 12.0124 102.048 12.2949C102.504 12.5775 102.852 12.974 103.094 13.4844C103.335 13.9902 103.456 14.5827 103.456 15.2617V15.9658H98.2812C98.2949 16.8454 98.5137 17.5153 98.9375 17.9756C99.3613 18.4359 99.9583 18.666 100.729 18.666C101.202 18.666 101.622 18.6227 101.986 18.5361C102.351 18.4495 102.729 18.3219 103.121 18.1533V19.1514C102.743 19.32 102.367 19.443 101.993 19.5205C101.624 19.598 101.187 19.6367 100.681 19.6367C99.9606 19.6367 99.3317 19.4909 98.7939 19.1992C98.2607 18.903 97.846 18.4701 97.5498 17.9004C97.2536 17.3307 97.1055 16.6335 97.1055 15.8086C97.1055 15.002 97.2399 14.3047 97.5088 13.7168C97.7822 13.1243 98.165 12.6686 98.6572 12.3496C99.154 12.0306 99.7373 11.8711 100.407 11.8711ZM100.394 12.8008C99.7874 12.8008 99.3044 12.999 98.9443 13.3955C98.5843 13.792 98.3701 14.3457 98.3018 15.0566H102.267C102.262 14.61 102.191 14.2181 102.055 13.8809C101.923 13.5391 101.72 13.2747 101.446 13.0879C101.173 12.8965 100.822 12.8008 100.394 12.8008ZM106.519 8.86328V11.5225C106.519 11.8278 106.509 12.124 106.491 12.4111C106.478 12.6982 106.466 12.9215 106.457 13.0811H106.519C106.724 12.7438 107.02 12.459 107.407 12.2266C107.795 11.9941 108.289 11.8779 108.891 11.8779C109.829 11.8779 110.577 12.2038 111.133 12.8555C111.693 13.5026 111.974 14.4665 111.974 15.7471C111.974 16.5902 111.846 17.3011 111.591 17.8799C111.336 18.4587 110.976 18.8962 110.511 19.1924C110.046 19.4886 109.497 19.6367 108.863 19.6367C108.271 19.6367 107.783 19.5273 107.4 19.3086C107.022 19.0853 106.73 18.8141 106.525 18.4951H106.437L106.204 19.5H105.384V8.86328H106.519ZM108.706 12.8281C108.164 12.8281 107.733 12.9352 107.414 13.1494C107.095 13.359 106.865 13.6781 106.724 14.1064C106.587 14.5303 106.519 15.068 106.519 15.7197V15.7812C106.519 16.7246 106.676 17.4469 106.99 17.9482C107.305 18.445 107.877 18.6934 108.706 18.6934C109.403 18.6934 109.925 18.4382 110.271 17.9277C110.622 17.4173 110.798 16.6882 110.798 15.7402C110.798 14.7741 110.625 14.0472 110.278 13.5596C109.937 13.0719 109.412 12.8281 108.706 12.8281ZM116.841 11.8711C117.479 11.8711 118.026 12.0124 118.481 12.2949C118.937 12.5775 119.286 12.974 119.527 13.4844C119.769 13.9902 119.89 14.5827 119.89 15.2617V15.9658H114.715C114.729 16.8454 114.947 17.5153 115.371 17.9756C115.795 18.4359 116.392 18.666 117.162 18.666C117.636 18.666 118.055 18.6227 118.42 18.5361C118.785 18.4495 119.163 18.3219 119.555 18.1533V19.1514C119.176 19.32 118.8 19.443 118.427 19.5205C118.058 19.598 117.62 19.6367 117.114 19.6367C116.394 19.6367 115.765 19.4909 115.228 19.1992C114.694 18.903 114.28 18.4701 113.983 17.9004C113.687 17.3307 113.539 16.6335 113.539 15.8086C113.539 15.002 113.674 14.3047 113.942 13.7168C114.216 13.1243 114.599 12.6686 115.091 12.3496C115.588 12.0306 116.171 11.8711 116.841 11.8711ZM116.827 12.8008C116.221 12.8008 115.738 12.999 115.378 13.3955C115.018 13.792 114.804 14.3457 114.735 15.0566H118.7C118.696 14.61 118.625 14.2181 118.488 13.8809C118.356 13.5391 118.153 13.2747 117.88 13.0879C117.606 12.8965 117.256 12.8008 116.827 12.8008ZM125.222 11.8711C125.372 11.8711 125.529 11.8802 125.693 11.8984C125.857 11.9121 126.003 11.9326 126.131 11.96L125.987 13.0127C125.864 12.9808 125.728 12.9557 125.577 12.9375C125.427 12.9193 125.285 12.9102 125.153 12.9102C124.853 12.9102 124.568 12.9717 124.299 13.0947C124.035 13.2132 123.802 13.3864 123.602 13.6143C123.401 13.8376 123.244 14.1087 123.13 14.4277C123.016 14.7422 122.959 15.0931 122.959 15.4805V19.5H121.817V12.0078H122.761L122.884 13.3887H122.932C123.087 13.1107 123.273 12.8577 123.492 12.6299C123.711 12.3975 123.964 12.2129 124.251 12.0762C124.543 11.9395 124.866 11.8711 125.222 11.8711ZM133.985 11.8848C134.879 11.8848 135.542 12.0853 135.975 12.4863C136.408 12.8874 136.624 13.5277 136.624 14.4072V19.5H135.797L135.578 18.3926H135.523C135.314 18.666 135.095 18.8962 134.867 19.083C134.639 19.2653 134.375 19.4043 134.074 19.5C133.778 19.5911 133.413 19.6367 132.98 19.6367C132.525 19.6367 132.119 19.557 131.764 19.3975C131.413 19.238 131.135 18.9964 130.93 18.6729C130.729 18.3493 130.629 17.9391 130.629 17.4424C130.629 16.695 130.925 16.1208 131.518 15.7197C132.11 15.3187 133.012 15.0999 134.225 15.0635L135.517 15.0088V14.5508C135.517 13.9036 135.378 13.4502 135.1 13.1904C134.822 12.9307 134.43 12.8008 133.924 12.8008C133.532 12.8008 133.158 12.8577 132.803 12.9717C132.447 13.0856 132.11 13.2201 131.791 13.375L131.442 12.5137C131.78 12.3405 132.167 12.1924 132.604 12.0693C133.042 11.9463 133.502 11.8848 133.985 11.8848ZM135.503 15.8086L134.361 15.8564C133.427 15.8929 132.769 16.0456 132.386 16.3145C132.003 16.5833 131.812 16.9639 131.812 17.4561C131.812 17.8844 131.941 18.2012 132.201 18.4062C132.461 18.6113 132.805 18.7139 133.233 18.7139C133.899 18.7139 134.443 18.5293 134.867 18.1602C135.291 17.791 135.503 17.2373 135.503 16.499V15.8086ZM141.382 18.707C141.569 18.707 141.76 18.6911 141.956 18.6592C142.152 18.6273 142.312 18.5885 142.435 18.543V19.4248C142.302 19.484 142.118 19.5342 141.881 19.5752C141.648 19.6162 141.421 19.6367 141.197 19.6367C140.801 19.6367 140.441 19.5684 140.117 19.4316C139.794 19.2904 139.534 19.0534 139.338 18.7207C139.146 18.388 139.051 17.9277 139.051 17.3398V12.8965H137.984V12.3428L139.058 11.8984L139.509 10.2715H140.192V12.0078H142.387V12.8965H140.192V17.3057C140.192 17.7751 140.299 18.126 140.514 18.3584C140.732 18.5908 141.022 18.707 141.382 18.707ZM150.139 12.0078V19.5H149.209L149.045 18.4473H148.983C148.828 18.707 148.628 18.9258 148.382 19.1035C148.136 19.2812 147.858 19.4134 147.548 19.5C147.243 19.5911 146.917 19.6367 146.57 19.6367C145.978 19.6367 145.481 19.541 145.08 19.3496C144.679 19.1582 144.376 18.862 144.171 18.4609C143.97 18.0599 143.87 17.5449 143.87 16.916V12.0078H145.019V16.834C145.019 17.4583 145.16 17.9255 145.442 18.2354C145.725 18.5407 146.156 18.6934 146.734 18.6934C147.29 18.6934 147.732 18.5885 148.061 18.3789C148.393 18.1693 148.632 17.8617 148.778 17.4561C148.924 17.0459 148.997 16.5446 148.997 15.9521V12.0078H150.139ZM155.341 11.8848C156.234 11.8848 156.897 12.0853 157.33 12.4863C157.763 12.8874 157.979 13.5277 157.979 14.4072V19.5H157.152L156.934 18.3926H156.879C156.669 18.666 156.451 18.8962 156.223 19.083C155.995 19.2653 155.73 19.4043 155.43 19.5C155.133 19.5911 154.769 19.6367 154.336 19.6367C153.88 19.6367 153.475 19.557 153.119 19.3975C152.768 19.238 152.49 18.9964 152.285 18.6729C152.085 18.3493 151.984 17.9391 151.984 17.4424C151.984 16.695 152.281 16.1208 152.873 15.7197C153.465 15.3187 154.368 15.0999 155.58 15.0635L156.872 15.0088V14.5508C156.872 13.9036 156.733 13.4502 156.455 13.1904C156.177 12.9307 155.785 12.8008 155.279 12.8008C154.887 12.8008 154.514 12.8577 154.158 12.9717C153.803 13.0856 153.465 13.2201 153.146 13.375L152.798 12.5137C153.135 12.3405 153.522 12.1924 153.96 12.0693C154.397 11.9463 154.858 11.8848 155.341 11.8848ZM156.858 15.8086L155.717 15.8564C154.783 15.8929 154.124 16.0456 153.741 16.3145C153.358 16.5833 153.167 16.9639 153.167 17.4561C153.167 17.8844 153.297 18.2012 153.557 18.4062C153.816 18.6113 154.16 18.7139 154.589 18.7139C155.254 18.7139 155.799 18.5293 156.223 18.1602C156.646 17.791 156.858 17.2373 156.858 16.499V15.8086ZM161.459 19.5H160.317V8.86328H161.459V19.5ZM164.993 12.0078V19.5H163.858V12.0078H164.993ZM164.439 9.20508C164.626 9.20508 164.786 9.2666 164.918 9.38965C165.055 9.50814 165.123 9.69499 165.123 9.9502C165.123 10.2008 165.055 10.3877 164.918 10.5107C164.786 10.6338 164.626 10.6953 164.439 10.6953C164.243 10.6953 164.079 10.6338 163.947 10.5107C163.82 10.3877 163.756 10.2008 163.756 9.9502C163.756 9.69499 163.82 9.50814 163.947 9.38965C164.079 9.2666 164.243 9.20508 164.439 9.20508ZM172.212 19.5H166.75V18.748L170.858 12.8965H167.01V12.0078H172.123V12.8486L168.069 18.6182H172.212V19.5ZM176.765 11.8848C177.658 11.8848 178.321 12.0853 178.754 12.4863C179.187 12.8874 179.403 13.5277 179.403 14.4072V19.5H178.576L178.357 18.3926H178.303C178.093 18.666 177.874 18.8962 177.646 19.083C177.419 19.2653 177.154 19.4043 176.854 19.5C176.557 19.5911 176.193 19.6367 175.76 19.6367C175.304 19.6367 174.898 19.557 174.543 19.3975C174.192 19.238 173.914 18.9964 173.709 18.6729C173.508 18.3493 173.408 17.9391 173.408 17.4424C173.408 16.695 173.704 16.1208 174.297 15.7197C174.889 15.3187 175.792 15.0999 177.004 15.0635L178.296 15.0088V14.5508C178.296 13.9036 178.157 13.4502 177.879 13.1904C177.601 12.9307 177.209 12.8008 176.703 12.8008C176.311 12.8008 175.938 12.8577 175.582 12.9717C175.227 13.0856 174.889 13.2201 174.57 13.375L174.222 12.5137C174.559 12.3405 174.946 12.1924 175.384 12.0693C175.821 11.9463 176.282 11.8848 176.765 11.8848ZM178.282 15.8086L177.141 15.8564C176.206 15.8929 175.548 16.0456 175.165 16.3145C174.782 16.5833 174.591 16.9639 174.591 17.4561C174.591 17.8844 174.721 18.2012 174.98 18.4062C175.24 18.6113 175.584 18.7139 176.013 18.7139C176.678 18.7139 177.223 18.5293 177.646 18.1602C178.07 17.791 178.282 17.2373 178.282 16.499V15.8086ZM184.742 19.6367C184.068 19.6367 183.473 19.4977 182.958 19.2197C182.443 18.9417 182.042 18.5179 181.755 17.9482C181.468 17.3786 181.324 16.6608 181.324 15.7949C181.324 14.888 181.475 14.1475 181.775 13.5732C182.081 12.9945 182.5 12.5661 183.033 12.2881C183.566 12.0101 184.173 11.8711 184.852 11.8711C185.225 11.8711 185.585 11.9098 185.932 11.9873C186.283 12.0602 186.57 12.1536 186.793 12.2676L186.451 13.2178C186.223 13.1266 185.959 13.0446 185.658 12.9717C185.362 12.8988 185.084 12.8623 184.824 12.8623C184.305 12.8623 183.872 12.974 183.525 13.1973C183.184 13.4206 182.926 13.7487 182.753 14.1816C182.584 14.6146 182.5 15.1478 182.5 15.7812C182.5 16.3874 182.582 16.9046 182.746 17.333C182.915 17.7614 183.163 18.0895 183.491 18.3174C183.824 18.5407 184.239 18.6523 184.735 18.6523C185.132 18.6523 185.49 18.6113 185.809 18.5293C186.128 18.4427 186.417 18.3424 186.677 18.2285V19.2402C186.426 19.3678 186.146 19.4658 185.836 19.5342C185.531 19.6025 185.166 19.6367 184.742 19.6367ZM185.856 21.4551C185.856 21.8971 185.686 22.2412 185.344 22.4873C185.002 22.738 184.501 22.8633 183.84 22.8633C183.699 22.8633 183.564 22.8542 183.437 22.8359C183.309 22.8223 183.206 22.8063 183.129 22.7881V22.0703C183.215 22.0885 183.327 22.1045 183.464 22.1182C183.601 22.1318 183.737 22.1387 183.874 22.1387C184.216 22.1387 184.478 22.0885 184.66 21.9883C184.842 21.888 184.934 21.7194 184.934 21.4824C184.934 21.2318 184.811 21.0495 184.564 20.9355C184.323 20.8216 184.013 20.7441 183.635 20.7031L184.243 19.5H185.002L184.633 20.2656C184.861 20.3112 185.066 20.3818 185.248 20.4775C185.435 20.5732 185.583 20.7008 185.692 20.8604C185.802 21.0199 185.856 21.2181 185.856 21.4551ZM194.914 15.7402C194.914 16.3555 194.834 16.9046 194.675 17.3877C194.515 17.8708 194.285 18.2786 193.984 18.6113C193.684 18.944 193.319 19.1992 192.891 19.377C192.467 19.5501 191.986 19.6367 191.448 19.6367C190.947 19.6367 190.487 19.5501 190.067 19.377C189.653 19.1992 189.293 18.944 188.987 18.6113C188.687 18.2786 188.452 17.8708 188.283 17.3877C188.119 16.9046 188.037 16.3555 188.037 15.7402C188.037 14.9199 188.176 14.2227 188.454 13.6484C188.732 13.0697 189.129 12.6299 189.644 12.3291C190.163 12.0238 190.781 11.8711 191.496 11.8711C192.18 11.8711 192.777 12.0238 193.287 12.3291C193.802 12.6344 194.201 13.0765 194.483 13.6553C194.771 14.2295 194.914 14.9245 194.914 15.7402ZM189.213 15.7402C189.213 16.3418 189.293 16.8636 189.452 17.3057C189.612 17.7477 189.858 18.0895 190.19 18.3311C190.523 18.5726 190.951 18.6934 191.476 18.6934C191.995 18.6934 192.421 18.5726 192.754 18.3311C193.091 18.0895 193.34 17.7477 193.499 17.3057C193.659 16.8636 193.738 16.3418 193.738 15.7402C193.738 15.1432 193.659 14.6283 193.499 14.1953C193.34 13.7578 193.093 13.4206 192.761 13.1836C192.428 12.9466 191.997 12.8281 191.469 12.8281C190.689 12.8281 190.118 13.0856 189.753 13.6006C189.393 14.1156 189.213 14.8288 189.213 15.7402ZM188.898 10.9961C188.926 10.7227 188.978 10.4788 189.056 10.2646C189.133 10.0505 189.236 9.86816 189.363 9.71777C189.491 9.56738 189.641 9.45345 189.814 9.37598C189.992 9.29395 190.188 9.25293 190.402 9.25293C190.612 9.25293 190.812 9.29622 191.004 9.38281C191.195 9.46484 191.378 9.56055 191.551 9.66992C191.724 9.77474 191.89 9.87044 192.05 9.95703C192.214 10.0391 192.371 10.0801 192.521 10.0801C192.74 10.0801 192.909 10.014 193.027 9.88184C193.15 9.74512 193.244 9.53092 193.308 9.23926H193.978C193.918 9.77246 193.761 10.1986 193.506 10.5176C193.251 10.832 192.907 10.9893 192.474 10.9893C192.273 10.9893 192.079 10.9482 191.893 10.8662C191.706 10.7796 191.526 10.6839 191.353 10.5791C191.179 10.4697 191.008 10.374 190.84 10.292C190.676 10.2054 190.514 10.1621 190.354 10.1621C190.131 10.1621 189.96 10.2305 189.842 10.3672C189.723 10.4993 189.632 10.709 189.568 10.9961H188.898ZM199.761 11.8711C200.399 11.8711 200.946 12.0124 201.401 12.2949C201.857 12.5775 202.206 12.974 202.447 13.4844C202.689 13.9902 202.81 14.5827 202.81 15.2617V15.9658H197.635C197.648 16.8454 197.867 17.5153 198.291 17.9756C198.715 18.4359 199.312 18.666 200.082 18.666C200.556 18.666 200.975 18.6227 201.34 18.5361C201.704 18.4495 202.083 18.3219 202.475 18.1533V19.1514C202.096 19.32 201.72 19.443 201.347 19.5205C200.978 19.598 200.54 19.6367 200.034 19.6367C199.314 19.6367 198.685 19.4909 198.147 19.1992C197.614 18.903 197.2 18.4701 196.903 17.9004C196.607 17.3307 196.459 16.6335 196.459 15.8086C196.459 15.002 196.593 14.3047 196.862 13.7168C197.136 13.1243 197.519 12.6686 198.011 12.3496C198.507 12.0306 199.091 11.8711 199.761 11.8711ZM199.747 12.8008C199.141 12.8008 198.658 12.999 198.298 13.3955C197.938 13.792 197.724 14.3457 197.655 15.0566H201.62C201.616 14.61 201.545 14.2181 201.408 13.8809C201.276 13.5391 201.073 13.2747 200.8 13.0879C200.526 12.8965 200.175 12.8008 199.747 12.8008ZM209.584 17.4492C209.584 17.9277 209.463 18.3311 209.222 18.6592C208.985 18.9827 208.643 19.2266 208.196 19.3906C207.754 19.5547 207.226 19.6367 206.61 19.6367C206.086 19.6367 205.633 19.5957 205.25 19.5137C204.867 19.4316 204.532 19.3154 204.245 19.165V18.1191C204.55 18.2695 204.915 18.4062 205.339 18.5293C205.763 18.6523 206.196 18.7139 206.638 18.7139C207.285 18.7139 207.754 18.609 208.046 18.3994C208.338 18.1898 208.483 17.9049 208.483 17.5449C208.483 17.3398 208.424 17.1598 208.306 17.0049C208.192 16.8454 207.998 16.6927 207.725 16.5469C207.451 16.3965 207.073 16.2324 206.59 16.0547C206.111 15.8724 205.697 15.6924 205.346 15.5146C204.999 15.3324 204.73 15.1113 204.539 14.8516C204.352 14.5918 204.259 14.2546 204.259 13.8398C204.259 13.2064 204.514 12.721 205.024 12.3838C205.539 12.042 206.214 11.8711 207.048 11.8711C207.499 11.8711 207.921 11.9167 208.312 12.0078C208.709 12.0944 209.078 12.2129 209.42 12.3633L209.037 13.2725C208.727 13.1403 208.397 13.0286 208.046 12.9375C207.695 12.8464 207.337 12.8008 206.973 12.8008C206.449 12.8008 206.045 12.8874 205.763 13.0605C205.485 13.2337 205.346 13.4707 205.346 13.7715C205.346 14.0039 205.41 14.1953 205.537 14.3457C205.669 14.4961 205.879 14.6374 206.166 14.7695C206.453 14.9017 206.831 15.0566 207.301 15.2344C207.77 15.4076 208.176 15.5876 208.518 15.7744C208.859 15.9567 209.121 16.18 209.304 16.4443C209.491 16.7041 209.584 17.0391 209.584 17.4492ZM217.931 11.8711C218.569 11.8711 219.116 12.0124 219.571 12.2949C220.027 12.5775 220.376 12.974 220.617 13.4844C220.859 13.9902 220.979 14.5827 220.979 15.2617V15.9658H215.805C215.818 16.8454 216.037 17.5153 216.461 17.9756C216.885 18.4359 217.482 18.666 218.252 18.666C218.726 18.666 219.145 18.6227 219.51 18.5361C219.874 18.4495 220.253 18.3219 220.645 18.1533V19.1514C220.266 19.32 219.89 19.443 219.517 19.5205C219.147 19.598 218.71 19.6367 218.204 19.6367C217.484 19.6367 216.855 19.4909 216.317 19.1992C215.784 18.903 215.369 18.4701 215.073 17.9004C214.777 17.3307 214.629 16.6335 214.629 15.8086C214.629 15.002 214.763 14.3047 215.032 13.7168C215.306 13.1243 215.688 12.6686 216.181 12.3496C216.677 12.0306 217.261 11.8711 217.931 11.8711ZM217.917 12.8008C217.311 12.8008 216.828 12.999 216.468 13.3955C216.108 13.792 215.894 14.3457 215.825 15.0566H219.79C219.785 14.61 219.715 14.2181 219.578 13.8809C219.446 13.5391 219.243 13.2747 218.97 13.0879C218.696 12.8965 218.345 12.8008 217.917 12.8008ZM230.064 11.8711C230.999 11.8711 231.744 12.1924 232.3 12.835C232.856 13.4775 233.134 14.4437 233.134 15.7334C233.134 16.5856 233.006 17.3011 232.751 17.8799C232.496 18.4587 232.136 18.8962 231.671 19.1924C231.211 19.4886 230.666 19.6367 230.037 19.6367C229.641 19.6367 229.292 19.5843 228.991 19.4795C228.69 19.3747 228.433 19.2334 228.219 19.0557C228.005 18.8779 227.827 18.6842 227.686 18.4746H227.604C227.617 18.6523 227.633 18.8665 227.651 19.1172C227.674 19.3678 227.686 19.5866 227.686 19.7734V22.8496H226.544V12.0078H227.48L227.631 13.1152H227.686C227.831 12.8874 228.009 12.68 228.219 12.4932C228.428 12.3018 228.684 12.1514 228.984 12.042C229.29 11.9281 229.65 11.8711 230.064 11.8711ZM229.866 12.8281C229.347 12.8281 228.927 12.9284 228.608 13.1289C228.294 13.3294 228.064 13.6302 227.918 14.0312C227.772 14.4277 227.695 14.9268 227.686 15.5283V15.7471C227.686 16.3805 227.754 16.916 227.891 17.3535C228.032 17.791 228.262 18.1237 228.581 18.3516C228.905 18.5794 229.338 18.6934 229.88 18.6934C230.345 18.6934 230.732 18.568 231.042 18.3174C231.352 18.0667 231.582 17.7181 231.732 17.2715C231.887 16.8203 231.965 16.3031 231.965 15.7197C231.965 14.8356 231.792 14.1338 231.445 13.6143C231.104 13.0902 230.577 12.8281 229.866 12.8281ZM238.521 11.8711C238.671 11.8711 238.828 11.8802 238.992 11.8984C239.156 11.9121 239.302 11.9326 239.43 11.96L239.286 13.0127C239.163 12.9808 239.026 12.9557 238.876 12.9375C238.726 12.9193 238.584 12.9102 238.452 12.9102C238.151 12.9102 237.867 12.9717 237.598 13.0947C237.333 13.2132 237.101 13.3864 236.9 13.6143C236.7 13.8376 236.543 14.1087 236.429 14.4277C236.315 14.7422 236.258 15.0931 236.258 15.4805V19.5H235.116V12.0078H236.06L236.183 13.3887H236.23C236.385 13.1107 236.572 12.8577 236.791 12.6299C237.01 12.3975 237.263 12.2129 237.55 12.0762C237.841 11.9395 238.165 11.8711 238.521 11.8711ZM247.305 15.7402C247.305 16.3555 247.225 16.9046 247.065 17.3877C246.906 17.8708 246.676 18.2786 246.375 18.6113C246.074 18.944 245.71 19.1992 245.281 19.377C244.857 19.5501 244.377 19.6367 243.839 19.6367C243.338 19.6367 242.877 19.5501 242.458 19.377C242.043 19.1992 241.683 18.944 241.378 18.6113C241.077 18.2786 240.842 17.8708 240.674 17.3877C240.51 16.9046 240.428 16.3555 240.428 15.7402C240.428 14.9199 240.567 14.2227 240.845 13.6484C241.123 13.0697 241.519 12.6299 242.034 12.3291C242.554 12.0238 243.171 11.8711 243.887 11.8711C244.57 11.8711 245.167 12.0238 245.678 12.3291C246.193 12.6344 246.591 13.0765 246.874 13.6553C247.161 14.2295 247.305 14.9245 247.305 15.7402ZM241.604 15.7402C241.604 16.3418 241.683 16.8636 241.843 17.3057C242.002 17.7477 242.248 18.0895 242.581 18.3311C242.914 18.5726 243.342 18.6934 243.866 18.6934C244.386 18.6934 244.812 18.5726 245.145 18.3311C245.482 18.0895 245.73 17.7477 245.89 17.3057C246.049 16.8636 246.129 16.3418 246.129 15.7402C246.129 15.1432 246.049 14.6283 245.89 14.1953C245.73 13.7578 245.484 13.4206 245.151 13.1836C244.819 12.9466 244.388 12.8281 243.859 12.8281C243.08 12.8281 242.508 13.0856 242.144 13.6006C241.784 14.1156 241.604 14.8288 241.604 15.7402ZM257.401 11.8711C258.226 11.8711 258.848 12.0876 259.268 12.5205C259.687 12.9489 259.896 13.6393 259.896 14.5918V19.5H258.775V14.6465C258.775 14.0404 258.643 13.5869 258.379 13.2861C258.119 12.9808 257.732 12.8281 257.217 12.8281C256.492 12.8281 255.966 13.0378 255.638 13.457C255.31 13.8763 255.146 14.4938 255.146 15.3096V19.5H254.018V14.6465C254.018 14.2409 253.958 13.9036 253.84 13.6348C253.726 13.3659 253.553 13.1654 253.32 13.0332C253.092 12.8965 252.803 12.8281 252.452 12.8281C251.955 12.8281 251.557 12.9307 251.256 13.1357C250.955 13.3408 250.736 13.6462 250.6 14.0518C250.467 14.4528 250.401 14.9473 250.401 15.5352V19.5H249.267V12.0078H250.183L250.354 13.0674H250.415C250.565 12.8076 250.755 12.5889 250.982 12.4111C251.21 12.2334 251.465 12.099 251.748 12.0078C252.031 11.9167 252.331 11.8711 252.65 11.8711C253.22 11.8711 253.696 11.9782 254.079 12.1924C254.466 12.402 254.747 12.7233 254.92 13.1562H254.981C255.228 12.7233 255.565 12.402 255.993 12.1924C256.422 11.9782 256.891 11.8711 257.401 11.8711ZM268.688 15.7402C268.688 16.3555 268.608 16.9046 268.448 17.3877C268.289 17.8708 268.059 18.2786 267.758 18.6113C267.457 18.944 267.092 19.1992 266.664 19.377C266.24 19.5501 265.759 19.6367 265.222 19.6367C264.72 19.6367 264.26 19.5501 263.841 19.377C263.426 19.1992 263.066 18.944 262.761 18.6113C262.46 18.2786 262.225 17.8708 262.057 17.3877C261.893 16.9046 261.811 16.3555 261.811 15.7402C261.811 14.9199 261.95 14.2227 262.228 13.6484C262.506 13.0697 262.902 12.6299 263.417 12.3291C263.937 12.0238 264.554 11.8711 265.27 11.8711C265.953 11.8711 266.55 12.0238 267.061 12.3291C267.576 12.6344 267.974 13.0765 268.257 13.6553C268.544 14.2295 268.688 14.9245 268.688 15.7402ZM262.986 15.7402C262.986 16.3418 263.066 16.8636 263.226 17.3057C263.385 17.7477 263.631 18.0895 263.964 18.3311C264.297 18.5726 264.725 18.6934 265.249 18.6934C265.769 18.6934 266.195 18.5726 266.527 18.3311C266.865 18.0895 267.113 17.7477 267.272 17.3057C267.432 16.8636 267.512 16.3418 267.512 15.7402C267.512 15.1432 267.432 14.6283 267.272 14.1953C267.113 13.7578 266.867 13.4206 266.534 13.1836C266.201 12.9466 265.771 12.8281 265.242 12.8281C264.463 12.8281 263.891 13.0856 263.526 13.6006C263.166 14.1156 262.986 14.8288 262.986 15.7402ZM273.65 19.6367C272.976 19.6367 272.381 19.4977 271.866 19.2197C271.351 18.9417 270.95 18.5179 270.663 17.9482C270.376 17.3786 270.232 16.6608 270.232 15.7949C270.232 14.888 270.383 14.1475 270.684 13.5732C270.989 12.9945 271.408 12.5661 271.941 12.2881C272.475 12.0101 273.081 11.8711 273.76 11.8711C274.133 11.8711 274.493 11.9098 274.84 11.9873C275.191 12.0602 275.478 12.1536 275.701 12.2676L275.359 13.2178C275.132 13.1266 274.867 13.0446 274.566 12.9717C274.27 12.8988 273.992 12.8623 273.732 12.8623C273.213 12.8623 272.78 12.974 272.434 13.1973C272.092 13.4206 271.834 13.7487 271.661 14.1816C271.493 14.6146 271.408 15.1478 271.408 15.7812C271.408 16.3874 271.49 16.9046 271.654 17.333C271.823 17.7614 272.071 18.0895 272.399 18.3174C272.732 18.5407 273.147 18.6523 273.644 18.6523C274.04 18.6523 274.398 18.6113 274.717 18.5293C275.036 18.4427 275.325 18.3424 275.585 18.2285V19.2402C275.334 19.3678 275.054 19.4658 274.744 19.5342C274.439 19.6025 274.074 19.6367 273.65 19.6367ZM274.765 21.4551C274.765 21.8971 274.594 22.2412 274.252 22.4873C273.91 22.738 273.409 22.8633 272.748 22.8633C272.607 22.8633 272.472 22.8542 272.345 22.8359C272.217 22.8223 272.115 22.8063 272.037 22.7881V22.0703C272.124 22.0885 272.235 22.1045 272.372 22.1182C272.509 22.1318 272.646 22.1387 272.782 22.1387C273.124 22.1387 273.386 22.0885 273.568 21.9883C273.751 21.888 273.842 21.7194 273.842 21.4824C273.842 21.2318 273.719 21.0495 273.473 20.9355C273.231 20.8216 272.921 20.7441 272.543 20.7031L273.151 19.5H273.91L273.541 20.2656C273.769 20.3112 273.974 20.3818 274.156 20.4775C274.343 20.5732 274.491 20.7008 274.601 20.8604C274.71 21.0199 274.765 21.2181 274.765 21.4551ZM283.822 15.7402C283.822 16.3555 283.743 16.9046 283.583 17.3877C283.424 17.8708 283.193 18.2786 282.893 18.6113C282.592 18.944 282.227 19.1992 281.799 19.377C281.375 19.5501 280.894 19.6367 280.356 19.6367C279.855 19.6367 279.395 19.5501 278.976 19.377C278.561 19.1992 278.201 18.944 277.896 18.6113C277.595 18.2786 277.36 17.8708 277.191 17.3877C277.027 16.9046 276.945 16.3555 276.945 15.7402C276.945 14.9199 277.084 14.2227 277.362 13.6484C277.64 13.0697 278.037 12.6299 278.552 12.3291C279.071 12.0238 279.689 11.8711 280.404 11.8711C281.088 11.8711 281.685 12.0238 282.195 12.3291C282.71 12.6344 283.109 13.0765 283.392 13.6553C283.679 14.2295 283.822 14.9245 283.822 15.7402ZM278.121 15.7402C278.121 16.3418 278.201 16.8636 278.36 17.3057C278.52 17.7477 278.766 18.0895 279.099 18.3311C279.431 18.5726 279.86 18.6934 280.384 18.6934C280.903 18.6934 281.329 18.5726 281.662 18.3311C281.999 18.0895 282.248 17.7477 282.407 17.3057C282.567 16.8636 282.646 16.3418 282.646 15.7402C282.646 15.1432 282.567 14.6283 282.407 14.1953C282.248 13.7578 282.002 13.4206 281.669 13.1836C281.336 12.9466 280.906 12.8281 280.377 12.8281C279.598 12.8281 279.026 13.0856 278.661 13.6006C278.301 14.1156 278.121 14.8288 278.121 15.7402ZM277.807 10.9961C277.834 10.7227 277.886 10.4788 277.964 10.2646C278.041 10.0505 278.144 9.86816 278.271 9.71777C278.399 9.56738 278.549 9.45345 278.723 9.37598C278.9 9.29395 279.096 9.25293 279.311 9.25293C279.52 9.25293 279.721 9.29622 279.912 9.38281C280.104 9.46484 280.286 9.56055 280.459 9.66992C280.632 9.77474 280.799 9.87044 280.958 9.95703C281.122 10.0391 281.279 10.0801 281.43 10.0801C281.648 10.0801 281.817 10.014 281.936 9.88184C282.059 9.74512 282.152 9.53092 282.216 9.23926H282.886C282.826 9.77246 282.669 10.1986 282.414 10.5176C282.159 10.832 281.815 10.9893 281.382 10.9893C281.181 10.9893 280.988 10.9482 280.801 10.8662C280.614 10.7796 280.434 10.6839 280.261 10.5791C280.088 10.4697 279.917 10.374 279.748 10.292C279.584 10.2054 279.422 10.1621 279.263 10.1621C279.039 10.1621 278.868 10.2305 278.75 10.3672C278.632 10.4993 278.54 10.709 278.477 10.9961H277.807ZM288.669 11.8711C289.307 11.8711 289.854 12.0124 290.31 12.2949C290.765 12.5775 291.114 12.974 291.355 13.4844C291.597 13.9902 291.718 14.5827 291.718 15.2617V15.9658H286.543C286.557 16.8454 286.775 17.5153 287.199 17.9756C287.623 18.4359 288.22 18.666 288.99 18.666C289.464 18.666 289.883 18.6227 290.248 18.5361C290.613 18.4495 290.991 18.3219 291.383 18.1533V19.1514C291.005 19.32 290.629 19.443 290.255 19.5205C289.886 19.598 289.448 19.6367 288.942 19.6367C288.222 19.6367 287.593 19.4909 287.056 19.1992C286.522 18.903 286.108 18.4701 285.812 17.9004C285.515 17.3307 285.367 16.6335 285.367 15.8086C285.367 15.002 285.502 14.3047 285.771 13.7168C286.044 13.1243 286.427 12.6686 286.919 12.3496C287.416 12.0306 287.999 11.8711 288.669 11.8711ZM288.655 12.8008C288.049 12.8008 287.566 12.999 287.206 13.3955C286.846 13.792 286.632 14.3457 286.563 15.0566H290.528C290.524 14.61 290.453 14.2181 290.316 13.8809C290.184 13.5391 289.981 13.2747 289.708 13.0879C289.435 12.8965 289.084 12.8008 288.655 12.8008ZM298.492 17.4492C298.492 17.9277 298.371 18.3311 298.13 18.6592C297.893 18.9827 297.551 19.2266 297.104 19.3906C296.662 19.5547 296.134 19.6367 295.519 19.6367C294.994 19.6367 294.541 19.5957 294.158 19.5137C293.775 19.4316 293.44 19.3154 293.153 19.165V18.1191C293.459 18.2695 293.823 18.4062 294.247 18.5293C294.671 18.6523 295.104 18.7139 295.546 18.7139C296.193 18.7139 296.662 18.609 296.954 18.3994C297.246 18.1898 297.392 17.9049 297.392 17.5449C297.392 17.3398 297.332 17.1598 297.214 17.0049C297.1 16.8454 296.906 16.6927 296.633 16.5469C296.359 16.3965 295.981 16.2324 295.498 16.0547C295.02 15.8724 294.605 15.6924 294.254 15.5146C293.908 15.3324 293.639 15.1113 293.447 14.8516C293.26 14.5918 293.167 14.2546 293.167 13.8398C293.167 13.2064 293.422 12.721 293.933 12.3838C294.448 12.042 295.122 11.8711 295.956 11.8711C296.407 11.8711 296.829 11.9167 297.221 12.0078C297.617 12.0944 297.986 12.2129 298.328 12.3633L297.945 13.2725C297.635 13.1403 297.305 13.0286 296.954 12.9375C296.603 12.8464 296.245 12.8008 295.881 12.8008C295.357 12.8008 294.953 12.8874 294.671 13.0605C294.393 13.2337 294.254 13.4707 294.254 13.7715C294.254 14.0039 294.318 14.1953 294.445 14.3457C294.577 14.4961 294.787 14.6374 295.074 14.7695C295.361 14.9017 295.74 15.0566 296.209 15.2344C296.678 15.4076 297.084 15.5876 297.426 15.7744C297.768 15.9567 298.03 16.18 298.212 16.4443C298.399 16.7041 298.492 17.0391 298.492 17.4492ZM307.475 11.8711C308.409 11.8711 309.154 12.1924 309.71 12.835C310.266 13.4775 310.544 14.4437 310.544 15.7334C310.544 16.5856 310.416 17.3011 310.161 17.8799C309.906 18.4587 309.546 18.8962 309.081 19.1924C308.621 19.4886 308.076 19.6367 307.447 19.6367C307.051 19.6367 306.702 19.5843 306.401 19.4795C306.101 19.3747 305.843 19.2334 305.629 19.0557C305.415 18.8779 305.237 18.6842 305.096 18.4746H305.014C305.027 18.6523 305.043 18.8665 305.062 19.1172C305.084 19.3678 305.096 19.5866 305.096 19.7734V22.8496H303.954V12.0078H304.891L305.041 13.1152H305.096C305.242 12.8874 305.419 12.68 305.629 12.4932C305.839 12.3018 306.094 12.1514 306.395 12.042C306.7 11.9281 307.06 11.8711 307.475 11.8711ZM307.276 12.8281C306.757 12.8281 306.338 12.9284 306.019 13.1289C305.704 13.3294 305.474 13.6302 305.328 14.0312C305.182 14.4277 305.105 14.9268 305.096 15.5283V15.7471C305.096 16.3805 305.164 16.916 305.301 17.3535C305.442 17.791 305.672 18.1237 305.991 18.3516C306.315 18.5794 306.748 18.6934 307.29 18.6934C307.755 18.6934 308.142 18.568 308.452 18.3174C308.762 18.0667 308.992 17.7181 309.143 17.2715C309.298 16.8203 309.375 16.3031 309.375 15.7197C309.375 14.8356 309.202 14.1338 308.855 13.6143C308.514 13.0902 307.987 12.8281 307.276 12.8281ZM318.986 15.7402C318.986 16.3555 318.907 16.9046 318.747 17.3877C318.588 17.8708 318.357 18.2786 318.057 18.6113C317.756 18.944 317.391 19.1992 316.963 19.377C316.539 19.5501 316.058 19.6367 315.521 19.6367C315.019 19.6367 314.559 19.5501 314.14 19.377C313.725 19.1992 313.365 18.944 313.06 18.6113C312.759 18.2786 312.524 17.8708 312.355 17.3877C312.191 16.9046 312.109 16.3555 312.109 15.7402C312.109 14.9199 312.248 14.2227 312.526 13.6484C312.804 13.0697 313.201 12.6299 313.716 12.3291C314.235 12.0238 314.853 11.8711 315.568 11.8711C316.252 11.8711 316.849 12.0238 317.359 12.3291C317.874 12.6344 318.273 13.0765 318.556 13.6553C318.843 14.2295 318.986 14.9245 318.986 15.7402ZM313.285 15.7402C313.285 16.3418 313.365 16.8636 313.524 17.3057C313.684 17.7477 313.93 18.0895 314.263 18.3311C314.595 18.5726 315.024 18.6934 315.548 18.6934C316.067 18.6934 316.493 18.5726 316.826 18.3311C317.163 18.0895 317.412 17.7477 317.571 17.3057C317.731 16.8636 317.811 16.3418 317.811 15.7402C317.811 15.1432 317.731 14.6283 317.571 14.1953C317.412 13.7578 317.166 13.4206 316.833 13.1836C316.5 12.9466 316.07 12.8281 315.541 12.8281C314.762 12.8281 314.19 13.0856 313.825 13.6006C313.465 14.1156 313.285 14.8288 313.285 15.7402ZM324.353 11.8711C324.503 11.8711 324.66 11.8802 324.824 11.8984C324.988 11.9121 325.134 11.9326 325.262 11.96L325.118 13.0127C324.995 12.9808 324.858 12.9557 324.708 12.9375C324.558 12.9193 324.416 12.9102 324.284 12.9102C323.983 12.9102 323.699 12.9717 323.43 13.0947C323.165 13.2132 322.933 13.3864 322.732 13.6143C322.532 13.8376 322.375 14.1087 322.261 14.4277C322.147 14.7422 322.09 15.0931 322.09 15.4805V19.5H320.948V12.0078H321.892L322.015 13.3887H322.062C322.217 13.1107 322.404 12.8577 322.623 12.6299C322.842 12.3975 323.095 12.2129 323.382 12.0762C323.674 11.9395 323.997 11.8711 324.353 11.8711ZM333.198 11.8711C333.836 11.8711 334.383 12.0124 334.839 12.2949C335.295 12.5775 335.643 12.974 335.885 13.4844C336.126 13.9902 336.247 14.5827 336.247 15.2617V15.9658H331.072C331.086 16.8454 331.305 17.5153 331.729 17.9756C332.152 18.4359 332.749 18.666 333.52 18.666C333.993 18.666 334.413 18.6227 334.777 18.5361C335.142 18.4495 335.52 18.3219 335.912 18.1533V19.1514C335.534 19.32 335.158 19.443 334.784 19.5205C334.415 19.598 333.978 19.6367 333.472 19.6367C332.752 19.6367 332.123 19.4909 331.585 19.1992C331.052 18.903 330.637 18.4701 330.341 17.9004C330.045 17.3307 329.896 16.6335 329.896 15.8086C329.896 15.002 330.031 14.3047 330.3 13.7168C330.573 13.1243 330.956 12.6686 331.448 12.3496C331.945 12.0306 332.528 11.8711 333.198 11.8711ZM333.185 12.8008C332.578 12.8008 332.095 12.999 331.735 13.3955C331.375 13.792 331.161 14.3457 331.093 15.0566H335.058C335.053 14.61 334.982 14.2181 334.846 13.8809C334.714 13.5391 334.511 13.2747 334.237 13.0879C333.964 12.8965 333.613 12.8008 333.185 12.8008ZM337.539 16.2461V15.2344H340.93V16.2461H337.539ZM350.821 11.8711C351.646 11.8711 352.268 12.0876 352.688 12.5205C353.107 12.9489 353.316 13.6393 353.316 14.5918V19.5H352.195V14.6465C352.195 14.0404 352.063 13.5869 351.799 13.2861C351.539 12.9808 351.152 12.8281 350.637 12.8281C349.912 12.8281 349.386 13.0378 349.058 13.457C348.729 13.8763 348.565 14.4938 348.565 15.3096V19.5H347.438V14.6465C347.438 14.2409 347.378 13.9036 347.26 13.6348C347.146 13.3659 346.973 13.1654 346.74 13.0332C346.512 12.8965 346.223 12.8281 345.872 12.8281C345.375 12.8281 344.977 12.9307 344.676 13.1357C344.375 13.3408 344.156 13.6462 344.02 14.0518C343.887 14.4528 343.821 14.9473 343.821 15.5352V19.5H342.687V12.0078H343.603L343.773 13.0674H343.835C343.985 12.8076 344.174 12.5889 344.402 12.4111C344.63 12.2334 344.885 12.099 345.168 12.0078C345.451 11.9167 345.751 11.8711 346.07 11.8711C346.64 11.8711 347.116 11.9782 347.499 12.1924C347.886 12.402 348.167 12.7233 348.34 13.1562H348.401C348.647 12.7233 348.985 12.402 349.413 12.1924C349.841 11.9782 350.311 11.8711 350.821 11.8711ZM358.45 11.8848C359.343 11.8848 360.007 12.0853 360.439 12.4863C360.872 12.8874 361.089 13.5277 361.089 14.4072V19.5H360.262L360.043 18.3926H359.988C359.779 18.666 359.56 18.8962 359.332 19.083C359.104 19.2653 358.84 19.4043 358.539 19.5C358.243 19.5911 357.878 19.6367 357.445 19.6367C356.99 19.6367 356.584 19.557 356.229 19.3975C355.878 19.238 355.6 18.9964 355.395 18.6729C355.194 18.3493 355.094 17.9391 355.094 17.4424C355.094 16.695 355.39 16.1208 355.982 15.7197C356.575 15.3187 357.477 15.0999 358.689 15.0635L359.981 15.0088V14.5508C359.981 13.9036 359.842 13.4502 359.564 13.1904C359.286 12.9307 358.895 12.8008 358.389 12.8008C357.997 12.8008 357.623 12.8577 357.268 12.9717C356.912 13.0856 356.575 13.2201 356.256 13.375L355.907 12.5137C356.244 12.3405 356.632 12.1924 357.069 12.0693C357.507 11.9463 357.967 11.8848 358.45 11.8848ZM359.968 15.8086L358.826 15.8564C357.892 15.8929 357.233 16.0456 356.851 16.3145C356.468 16.5833 356.276 16.9639 356.276 17.4561C356.276 17.8844 356.406 18.2012 356.666 18.4062C356.926 18.6113 357.27 18.7139 357.698 18.7139C358.364 18.7139 358.908 18.5293 359.332 18.1602C359.756 17.791 359.968 17.2373 359.968 16.499V15.8086ZM364.562 12.0078V19.5H363.427V12.0078H364.562ZM364.008 9.20508C364.195 9.20508 364.354 9.2666 364.486 9.38965C364.623 9.50814 364.691 9.69499 364.691 9.9502C364.691 10.2008 364.623 10.3877 364.486 10.5107C364.354 10.6338 364.195 10.6953 364.008 10.6953C363.812 10.6953 363.648 10.6338 363.516 10.5107C363.388 10.3877 363.324 10.2008 363.324 9.9502C363.324 9.69499 363.388 9.50814 363.516 9.38965C363.648 9.2666 363.812 9.20508 364.008 9.20508ZM368.109 19.5H366.968V8.86328H368.109V19.5Z" fill="#C8CDD0"/>
</svg>
